<svg xmlns="http://www.w3.org/2000/svg" xmlns:xlink="http://www.w3.org/1999/xlink" version="1.1" id="Layer_1" x="0px" y="0px" width="221px" height="97px" viewBox="-2.04611 -2.10357 228.592 100.278" enable-background="new 0 0 315 97" xml:space="preserve"  preserveAspectRatio="xMidYMid meet" ><rect id="svgEditorBackground" x="0" y="0" width="315" height="97" style="fill: none; stroke: none;"/>
<g>
	
	<g>
		<path fill="#D31F3A" d="M46.497,52.262c1.109-4.211,0.543-8.494-1.29-12.198c-4.236,7.676-12.897,12.448-22.25,11.743    c-0.838-0.066-1.804-0.231-2.742-0.43v12.132c1.118,0.533,2.27,0.997,3.479,1.316C33.745,67.468,43.975,61.833,46.497,52.262z"/>
		<path fill="#D31F3A" d="M15.844,43.735l3.577,2.793c0.259,0.204,1.55,0.683,3.875,0.864c8.435,0.639,16.12-4.201,18.979-11.616    c-2.417-2.658-5.643-4.689-9.426-5.687c-5.398-1.419-11.083-0.5-15.599,2.525l-2.466-3.674c5.571-3.735,12.565-4.875,19.191-3.13    c4.576,1.207,8.482,3.656,11.442,6.858c2.823-3.43,6.567-5.935,10.787-7.302V0.666C53.697,0.266,51.145,0,48.525,0    C21.723,0,0,21.717,0,48.497c0,14.16,6.107,26.861,15.787,35.726V48.228L15.844,43.735z"/>
		<path fill="#D31F3A" d="M60.634,1.586V24.35c0.99-0.125,1.993-0.193,3.008-0.193c12.837,0,23.28,10.042,23.28,22.388    c0,12.345-10.442,22.387-23.28,22.387c-2.371,0-4.693-0.339-6.906-1.007l1.28-4.233c1.796,0.543,3.69,0.817,5.626,0.817    c10.395,0,18.853-8.059,18.853-17.964c0-9.904-8.458-17.961-18.853-17.961c-1.021,0-2.021,0.105-3.008,0.256v27.005h-4.429V30.062    c-3.192,1.305-5.97,3.444-8.02,6.25c3.059,5,4.167,11.091,2.594,17.076c-3.146,11.931-15.8,18.982-28.208,15.717    c-0.806-0.21-1.579-0.512-2.355-0.803c0,7.761,0,15.917,0,19.531C28.189,93.579,37.946,97,48.525,97    c26.798,0,48.523-21.719,48.523-48.503C97.048,25.903,81.56,6.968,60.634,1.586z"/>
		<path fill="#FFFFFF" d="M22.571,69.104c12.409,3.266,25.063-3.786,28.208-15.717c1.573-5.985,0.464-12.075-2.594-17.076    c2.05-2.806,4.828-4.945,8.02-6.25v25.782h4.429V28.839c0.987-0.15,1.988-0.256,3.008-0.256c10.395,0,18.853,8.057,18.853,17.961    c0,9.906-8.458,17.964-18.853,17.964c-1.936,0-3.83-0.274-5.626-0.817l-1.28,4.233c2.213,0.668,4.536,1.007,6.906,1.007    c12.837,0,23.28-10.042,23.28-22.387c0-12.346-10.442-22.388-23.28-22.388c-1.015,0-2.018,0.068-3.008,0.193V1.586    c-1.453-0.375-2.928-0.682-4.429-0.92v24.701c-4.22,1.367-7.964,3.872-10.787,7.302c-2.959-3.202-6.866-5.652-11.442-6.858    c-6.626-1.744-13.62-0.605-19.191,3.13l2.466,3.674c4.515-3.025,10.2-3.944,15.599-2.525c3.783,0.997,7.008,3.028,9.426,5.687    c-2.859,7.415-10.543,12.255-18.979,11.616c-2.326-0.182-3.616-0.661-3.875-0.864l-3.577-2.793l-0.057,4.493v35.995    c1.406,1.286,2.878,2.495,4.429,3.61c0-3.614,0-11.771,0-19.531C20.992,68.593,21.765,68.895,22.571,69.104z M20.216,51.377    c0.938,0.198,1.903,0.363,2.742,0.43c9.353,0.705,18.014-4.067,22.25-11.743c1.833,3.705,2.399,7.987,1.29,12.198    c-2.522,9.571-12.752,15.206-22.802,12.563c-1.209-0.319-2.362-0.783-3.479-1.316V51.377z"/>
	</g>
	
</g>
<text fill="black" x="212.066" y="51.0675" id="lims_text" style="font-family: Arial; font-size: 26.1592px; font-style: normal;" transform="matrix(1.82137 0 0 1.82137 -270.281 -26.7924)" dx="" dy="">LIMS</text></svg>